<svg xmlns="http://www.w3.org/2000/svg" width="33" height="33" viewBox="0 0 33 33">
  <g id="グループ_47" data-name="グループ 47" transform="translate(-31 -266)">
    <circle id="楕円形_12" data-name="楕円形 12" cx="16.5" cy="16.5" r="16.5" transform="translate(31 266)" fill="#65ef33"/>
    <g id="洗濯機アイコン4" transform="translate(0.883 270)">
      <path id="パス_38" data-name="パス 38" d="M171.048,185.361A4.361,4.361,0,1,1,175.409,181,4.366,4.366,0,0,1,171.048,185.361Zm1.4-3.154a.345.345,0,1,0-.344-.344A.345.345,0,0,0,172.453,182.207Zm-1.673.9a.29.29,0,1,0-.29-.29A.29.29,0,0,0,170.78,183.1Zm3.6-2.1a3.33,3.33,0,0,0-6.66-.02c3.252,2.87,3.072-2.925,6.651.263C174.375,181.163,174.378,181.082,174.378,181Z" transform="translate(-124.51 -168.986)" fill="#fff"/>
      <path id="パス_39" data-name="パス 39" d="M140.249,150.207a6.163,6.163,0,1,1,1.1-7.215h2.534v5.038h-2.229A6.18,6.18,0,0,1,140.249,150.207Zm-.532-8.184a5.405,5.405,0,1,0,1.587,3.826A5.392,5.392,0,0,0,139.717,142.022Zm2.171,5.255h1.246v-3.533h-1.448a6.149,6.149,0,0,1,.2,3.533Z" transform="translate(-89.353 -133.835)" fill="#fff"/>
      <path id="パス_40" data-name="パス 40" d="M56.894,24.6a1.353,1.353,0,0,1-.957.4h-18.8a1.353,1.353,0,0,1-1.353-1.353V2.156A1.353,1.353,0,0,1,37.138.8h1.2V0h2.306V.8H52.428V0h2.306V.8h1.2A1.353,1.353,0,0,1,57.29,2.156V23.647A1.354,1.354,0,0,1,56.894,24.6ZM56.087,2.156a.147.147,0,0,0-.044-.106.145.145,0,0,0-.106-.044h-18.8a.145.145,0,0,0-.106.044.148.148,0,0,0-.044.106V3.635h19.1Zm0,2.231h-19.1v19.26a.152.152,0,0,0,.15.151h18.8a.152.152,0,0,0,.15-.151Z" transform="translate(0 0)" fill="#fff"/>
      <rect id="長方形_98" data-name="長方形 98" width="11.956" height="3.008" transform="translate(40.56 19.071)" fill="#fff"/>
    </g>
  </g>
</svg>
