<svg id="レイヤー_1" data-name="レイヤー 1" xmlns="http://www.w3.org/2000/svg" viewBox="0 0 445.78 264.09"><defs><style>.cls-1,.cls-3,.cls-4{fill:none;}.cls-1,.cls-2,.cls-3,.cls-4{stroke:#ff9124;stroke-miterlimit:10;}.cls-1,.cls-3{stroke-width:6px;}.cls-2,.cls-5{fill:#ff9124;}.cls-2,.cls-4{stroke-width:2px;}.cls-3{stroke-linecap:round;}.cls-5{font-size:49.65px;font-family:mini-wakuwaku-90ms-RKSJ-H, mini-wakuwaku;}</style></defs><title>ロゴ</title><circle class="cls-1" cx="217.79" cy="177.53" r="83.41"/><circle class="cls-2" cx="244.07" cy="178.68" r="5.71"/><circle class="cls-2" cx="198.37" cy="178.68" r="5.71"/><path class="cls-3" d="M326.58,338.7s-16.33,12.06-30.86,0" transform="translate(-88.22 -143.11)"/><path class="cls-3" d="M335.66,243.35s7.85,31.71-23.09,49.49" transform="translate(-88.22 -143.11)"/><path class="cls-4" d="M366.05,403.5" transform="translate(-88.22 -143.11)"/><path class="cls-3" d="M271.68,245.63s8.45,37.94-26.23,57.87" transform="translate(-88.22 -143.11)"/><path class="cls-3" d="M306,238.78s6.61,35.52-26.23,57.87" transform="translate(-88.22 -143.11)"/><path class="cls-1" d="M226,297.79a23.6,23.6,0,0,0-9.14-2.29c-9.42,0-13.71,9.15-13.71,18.29s11.43,18.28,20.57,16" transform="translate(-88.22 -143.11)"/><text class="cls-5" transform="translate(125.76 61.87) rotate(-19.3)">か</text><text class="cls-5" transform="matrix(0.99, -0.14, 0.14, 0.99, 167.82, 46.63)">じ</text><text class="cls-5" transform="matrix(1, 0.06, -0.06, 1, 212.07, 40.09)">い</text><text class="cls-5" transform="translate(256.76 42.35) rotate(15)">く</text></svg>