<svg xmlns="http://www.w3.org/2000/svg" width="32.167" height="30.98" viewBox="0 0 32.167 30.98">
  <g id="_いいね_の無料アイコン" data-name="「いいね」の無料アイコン" transform="translate(0 0)">
    <path id="Path_41" data-name="Path 41" d="M157.777,28.912a2.273,2.273,0,0,0-1.672-2.187,2.278,2.278,0,0,0-1.288-4.159h-4.262a3.639,3.639,0,0,1-2.422-.739c-1.365-1.463.922-3.573,1.348-4.738a8.337,8.337,0,0,0,.5-5.887c-.92-2.625-3.721-2.179-4.162.475a17.106,17.106,0,0,1-4.652,7.931c-2.354,2.081-4.454,3.5-5.361,4.623a3.888,3.888,0,0,1-1.778,1.293V36.874h1.286c1.847,0,7.4,1.872,10.105,1.972a29.417,29.417,0,0,0,5.869-.138l1.432-.207a2.255,2.255,0,0,0,1.613-3.347,2.262,2.262,0,0,0,1.291-3.976A2.275,2.275,0,0,0,157.777,28.912Z" transform="translate(-125.61 -9.444)" fill="#ffb73b"/>
    <path id="Path_42" data-name="Path 42" d="M0,268.213v10.27a2.3,2.3,0,0,0,2.3,2.3H5.041a1.532,1.532,0,0,0,1.531-1.532V265.914H2.3A2.3,2.3,0,0,0,0,268.213Zm3.233,8.008a1.056,1.056,0,1,1-1.055,1.056A1.056,1.056,0,0,1,3.233,276.221Z" transform="translate(0 -249.801)" fill="#ffb73b"/>
  </g>
</svg>
